<svg xmlns="http://www.w3.org/2000/svg" width="40" height="40" fill="none" viewBox="0 0 40 40"><path fill="#09080D" d="M0 0h40v40H0z"/><path fill="#E4E0F5" fill-rule="evenodd" d="M23.048 8.402c-.577-.769-1.8-.361-1.8.6v22c0 .961 1.223 1.369 1.8.6l1.15-1.533a4 4 0 0 0 .8-2.4V12.335a4 4 0 0 0-.8-2.4zm-6.549.399a4 4 0 0 0-1.501 3.123V28.08a4 4 0 0 0 1.501 3.124l.624.5a1 1 0 0 0 1.625-.782V9.083a1 1 0 0 0-1.625-.781zm11 7.772c0-.912 1.12-1.348 1.736-.675l2.023 2.206a2.81 2.81 0 0 1 0 3.798l-2.023 2.205c-.616.672-1.737.236-1.737-.675zm-16.738-.675c.616-.673 1.737-.237 1.737.675v6.859c0 .912-1.12 1.348-1.737.675l-2.022-2.205a2.81 2.81 0 0 1 0-3.798z" clip-rule="evenodd"/></svg>