<svg xmlns="http://www.w3.org/2000/svg" width="40" height="40" fill="none" viewBox="0 0 40 40"><rect width="40" height="40" fill="#09080D" rx="8"/><path fill="#E4E0F5" fill-rule="evenodd" d="M22.18 9.64c.71-.71 1.63-1.17 2.62-1.31L27 8c.4-.05.74.09.97.33.42.41.5 1.14 0 1.64l-18 18c-.5.5-1.22.41-1.63 0A1.13 1.13 0 0 1 8 27l.32-2.2c.14-1 .6-1.91 1.3-2.62L22.19 9.64Zm8.18 8.18c.71-.71 1.17-1.63 1.31-2.62L32 13c.05-.4-.09-.74-.33-.97a1.15 1.15 0 0 0-1.64 0l-18 18c-.5.5-.41 1.22 0 1.63.24.24.58.38.98.33l2.2-.32c1-.14 1.91-.6 2.62-1.3l12.54-12.55Zm-1.42 5.51a1.16 1.16 0 0 1 1.98.87l-.16 3.46a3.24 3.24 0 0 1-3.1 3.1l-3.46.16a1.16 1.16 0 0 1-.87-1.98l5.61-5.6ZM16.67 11.06c.74-.75.18-2.02-.87-1.98l-3.46.16a3.24 3.24 0 0 0-3.1 3.1l-.16 3.46a1.16 1.16 0 0 0 1.98.87l5.6-5.61Z" clip-rule="evenodd"/></svg>