<svg xmlns="http://www.w3.org/2000/svg" width="40" height="40" fill="none" viewBox="0 0 40 40"><rect width="40" height="40" fill="#09080D" rx="8"/><path fill="#E4E0F5" fill-rule="evenodd" d="M24.2 9.933a4 4 0 0 1 .8 2.4v15.334a4 4 0 0 1-.8 2.4l-1.15 1.534c-.21.28-.505.399-.796.399-.509 0-1.004-.388-1.004-1V9c0-.611.495-1 1.004-1 .29 0 .586.12.796.4zm-11.7 6.64c0-.912-1.121-1.348-1.737-.675L8.74 18.105a2.8 2.8 0 0 0 0 3.797l2.023 2.206c.616.672 1.737.236 1.737-.676zm16.737-.675c-.616-.673-1.737-.237-1.737.675v6.859c0 .912 1.12 1.348 1.737.676l2.022-2.206a2.81 2.81 0 0 0 0-3.797zM15 12.333a4 4 0 0 1 .8-2.4L16.95 8.4c.21-.28.505-.4.796-.4.509 0 1.004.389 1.004 1v22c0 .612-.495 1-1.004 1a.98.98 0 0 1-.796-.4l-1.15-1.533a4 4 0 0 1-.8-2.4z" clip-rule="evenodd"/></svg>