<svg xmlns="http://www.w3.org/2000/svg" width="40" height="40" fill="none" viewBox="0 0 40 40"><rect width="40" height="40" fill="#09080D" rx="10"/><path fill="#E4E0F5" d="M13 9a4 4 0 0 0-4 4v3.38c0 1.34 1.62 2 2.56 1.06l5.88-5.88A1.5 1.5 0 0 0 16.38 9H13Z"/><path fill="#E4E0F5" d="M26.66 8a4 4 0 0 0-2.83 1.17L9.17 23.83A4 4 0 0 0 8 26.66v1.53c0 .67.8 1 1.28.53L28.72 9.28A.75.75 0 0 0 28.19 8h-1.53Z"/><path fill="#E4E0F5" d="M32 11.81c0-.67-.8-1-1.28-.53L11.28 30.72a.75.75 0 0 0 .53 1.28h1.53a4 4 0 0 0 2.83-1.17l14.66-14.66A4 4 0 0 0 32 13.34v-1.53Z"/><path fill="#E4E0F5" d="M31 23.62c0-1.34-1.62-2-2.56-1.06l-5.88 5.88A1.5 1.5 0 0 0 23.62 31H27a4 4 0 0 0 4-4v-3.38Z"/></svg>