<svg xmlns="http://www.w3.org/2000/svg" width="44" height="44" fill="none" viewBox="0 0 44 44"><rect width="44" height="44" fill="#09080D" rx="10"/><path fill="#E4E0F5" d="M15 11a4 4 0 0 0-4 4v3.38c0 1.34 1.62 2 2.56 1.06l5.88-5.88A1.5 1.5 0 0 0 18.38 11H15Z"/><path fill="#E4E0F5" d="M28.66 10a4 4 0 0 0-2.83 1.17L11.17 25.83A4 4 0 0 0 10 28.66v1.53c0 .67.8 1 1.28.53l19.44-19.44a.75.75 0 0 0-.53-1.28h-1.53Z"/><path fill="#E4E0F5" d="M34 13.81c0-.67-.8-1-1.28-.53L13.28 32.72a.75.75 0 0 0 .53 1.28h1.53a4 4 0 0 0 2.83-1.17l14.66-14.66A4 4 0 0 0 34 15.34v-1.53Z"/><path fill="#E4E0F5" d="M33 25.62c0-1.34-1.62-2-2.56-1.06l-5.88 5.88A1.5 1.5 0 0 0 25.62 33H29a4 4 0 0 0 4-4v-3.38Z"/></svg>